# Blender 3.6.5
# www.blender.org
mtllib rock.mtl
o Icosphere-col
v -0.570636 0.141288 0.636854
v 0.043010 0.069594 -0.850640
v -0.723600 0.447215 0.525720
v -0.723600 0.447215 -0.525720
v 0.303918 0.504961 -0.684146
v -0.305045 0.766965 0.221625
v 0.803253 -0.030158 -0.280586
v 0.417055 0.742246 0.000000
v 0.564566 0.447215 0.454002
v 0.500583 -0.001181 0.687751
v 0.564536 0.447215 0.454043
v -0.224936 0.447215 0.687748
v 0.481708 -0.418389 -0.168266
v 0.040748 -0.248658 0.473559
v -0.667879 -0.111693 0.420820
v -0.785439 0.123427 0.335407
v -0.785439 0.123427 -0.335407
v -0.434494 -0.193654 -0.417347
v -0.228701 -0.433270 -0.081401
vn 0.5626 -0.7480 0.3521
vn -0.1100 -0.5257 0.8435
vn 0.8004 0.5129 -0.3103
vn -0.0510 -0.8276 -0.5590
vn 0.5950 -0.0498 -0.8022
vn -0.0650 0.9461 -0.3174
vn 0.0313 0.8267 0.5617
vn -0.5092 -0.3618 -0.7809
vn -0.1610 0.4353 -0.8858
vn 0.9545 0.0191 0.2978
vn 0.1807 0.8505 0.4939
vn -0.6071 0.7947 -0.0000
vn -0.1051 0.9342 -0.3409
vn -0.0601 -0.0973 0.9934
vn 0.8944 0.4472 -0.0000
vn 0.2579 0.4174 0.8714
vn -0.3035 0.1876 0.9342
vn 0.4445 -0.5685 -0.6923
vn -0.9822 0.1876 -0.0000
vn -0.7946 -0.1876 0.5774
vn -0.7263 -0.6808 -0.0949
vn -0.0977 -0.8844 0.4564
vt 0.227394 0.235983
vt 0.209171 0.174992
vt 0.392734 0.138459
vt 0.412157 0.230882
vt 0.031094 0.261064
vt 0.156501 0.174992
vt 0.519365 0.331370
vt 0.412157 0.398961
vt 0.583836 0.248443
vt 0.465516 0.138459
vt 0.647575 0.148269
vt 0.703205 0.202099
vt 0.454547 0.499731
vt 0.000000 0.314921
vt 0.090668 0.314921
vt 0.208015 0.378987
vt 0.052586 0.406002
vt 0.760182 0.257920
vt 0.727273 0.314921
vt 0.412157 0.230882
vt 0.266597 0.314921
vt 0.266589 0.314921
vt 0.315117 0.398961
vt 0.210719 0.463930
vt 0.909091 0.314921
vt 0.856506 0.406002
vt 0.698374 0.463929
vt 0.227394 0.235983
vt 0.090668 0.314921
vt 0.266589 0.314921
vt 0.090668 0.314921
vt 0.760182 0.257920
vt 0.876181 0.257920
vt 0.900079 0.216528
vt 0.940185 0.261064
vt 0.661104 0.216528
vt 0.647575 0.148269
vt 0.465516 0.138459
s 0
f 10/1/1 14/2/1 13/3/1 7/4/1
f 1/5/2 14/6/2 10/1/2
f 7/4/3 5/7/3 8/8/3
f 2/9/4 13/10/4 19/11/4 18/12/4
f 7/4/5 2/9/5 5/7/5
f 8/8/6 5/7/6 6/13/6
f 3/14/7 12/15/7 11/16/7 6/17/7
f 2/9/8 18/12/8 17/18/8 4/19/8
f 2/9/9 4/19/9 5/7/9
f 10/1/10 7/20/10 11/21/10
f 11/22/11 9/21/11 8/23/11 6/24/11
f 4/19/12 3/25/12 6/26/12
f 5/7/13 4/19/13 6/27/13
f 1/5/14 10/28/14 12/29/14
f 11/21/15 7/20/15 8/8/15 9/21/15
f 12/29/16 10/28/16 11/30/16
f 1/5/17 12/31/17 3/14/17
f 13/10/18 2/9/18 7/4/18
f 17/32/19 16/33/19 3/25/19 4/19/19
f 16/33/20 15/34/20 1/35/20 3/25/20
f 15/36/21 16/33/21 17/32/21 18/12/21 19/11/21
f 1/5/22 15/36/22 19/37/22 13/38/22 14/2/22
